<?xml version="1.0" standalone="no"?>
<!DOCTYPE svg PUBLIC "-//W3C//DTD SVG 20010904//EN"
 "http://www.w3.org/TR/2001/REC-SVG-20010904/DTD/svg10.dtd">
<svg version="1.0" xmlns="http://www.w3.org/2000/svg"
 width="1000.000000pt" height="1000.000000pt" viewBox="0 0 1000.000000 1000.000000"
 preserveAspectRatio="xMidYMid meet">

<g transform="translate(0.000000,1000.000000) scale(0.100000,-0.100000)"
fill="#000000" stroke="none">
<path d="M0 5000 l0 -5000 5000 0 5000 0 0 5000 0 5000 -5000 0 -5000 0 0
-5000z m5228 1786 c122 -211 224 -391 228 -400 5 -14 -2 -16 -55 -16 l-61 0
-33 53 c-19 28 -93 157 -167 285 -73 127 -136 232 -140 232 -4 0 -67 -105
-140 -232 -74 -128 -148 -257 -167 -285 l-33 -53 -61 0 c-54 0 -60 2 -54 17
13 35 448 783 455 783 4 0 107 -173 228 -384z m-1198 -1695 l5 -884 85 -33
c47 -18 89 -35 95 -37 5 -2 2 -21 -9 -45 l-19 -42 -314 0 -313 0 0 30 c0 26
13 40 99 108 l100 77 0 682 1 682 -101 71 c-94 67 -100 74 -97 103 3 32 5 33
193 104 139 53 201 72 230 70 l40 -2 5 -884z m1577 859 c19 -37 19 -1863 0
-1900 -11 -22 -20 -25 -71 -28 -106 -6 -96 -108 -96 976 0 1084 -10 985 94
980 53 -3 62 -6 73 -28z m1276 -251 c-14 -13 -517 -302 -534 -306 -19 -5 -234
116 -224 125 3 3 175 104 383 224 l377 217 3 -126 c1 -70 -1 -130 -5 -134z
m472 41 c204 -117 374 -216 378 -220 9 -8 -194 -130 -215 -130 -7 0 -132 70
-278 155 l-265 154 -3 131 c-1 72 1 130 5 127 4 -2 175 -100 378 -217z m-144
-266 l269 -156 0 -318 0 -318 -269 -156 c-147 -86 -274 -156 -282 -156 -8 0
-133 70 -279 154 l-265 154 0 322 0 322 265 154 c146 84 271 154 279 154 8 0
135 -70 282 -156z m-1016 -93 l100 -59 3 -321 2 -320 -94 -55 c-51 -31 -101
-58 -110 -62 -15 -6 -16 31 -16 435 0 243 3 441 8 441 4 -1 52 -27 107 -59z
m1585 -386 l0 -444 -107 63 -108 62 0 323 0 323 100 59 c55 32 103 58 108 59
4 0 7 -200 7 -445z m-4716 206 c148 -72 238 -241 261 -488 l7 -73 -412 0 -412
0 7 -56 c19 -154 99 -290 198 -338 139 -67 267 -32 475 128 40 31 74 56 76 56
3 0 18 -18 36 -40 l31 -39 -196 -156 -196 -156 -107 -11 c-135 -13 -225 0
-321 48 -61 31 -147 105 -186 161 -91 131 -129 337 -90 487 34 129 149 289
273 379 133 97 254 138 394 133 85 -3 105 -7 162 -35z m1856 -15 c0 -31 -15
-46 -255 -247 -140 -118 -255 -217 -255 -220 0 -3 82 -118 183 -255 l183 -249
89 -37 c50 -21 94 -39 100 -41 5 -2 2 -21 -9 -45 l-19 -42 -191 0 -191 0 -200
282 c-110 154 -200 287 -200 294 0 7 89 87 198 179 108 91 197 169 197 173 -1
4 -46 39 -100 77 -54 39 -99 74 -100 78 0 4 9 26 20 47 l20 40 265 0 265 0 0
-34z m1701 -732 l269 -156 0 -129 0 -130 -22 12 c-56 29 -734 422 -741 428 -8
8 188 129 211 130 7 1 134 -69 283 -155z m1013 94 c59 -33 103 -64 99 -68 -7
-7 -144 -86 -756 -437 -4 -3 -6 55 -5 127 l3 133 265 153 c146 85 270 154 277
154 6 0 59 -28 117 -62z m-4564 -929 c0 -6 -85 -159 -190 -340 -104 -180 -190
-331 -190 -334 0 -3 1040 -5 2310 -5 1271 0 2310 2 2310 5 0 3 -85 154 -190
334 -104 181 -190 334 -190 340 0 8 20 11 62 9 l62 -3 232 -402 232 -403
-2519 0 -2519 0 49 83 c26 45 126 217 221 382 95 165 179 310 186 323 12 19
23 22 74 22 38 0 60 -4 60 -11z"/>
<path d="M2699 5051 c-52 -11 -107 -48 -135 -92 -28 -45 -54 -136 -54 -191 l0
-38 255 0 c224 0 255 2 255 16 0 32 -33 161 -50 194 -22 42 -66 85 -100 98
-38 14 -130 21 -171 13z"/>
</g>
</svg>
